<svg version="1.2" xmlns="http://www.w3.org/2000/svg" viewBox="0 0 74 76" width="74" height="76"><style>.a{fill:#fff}</style><path fill-rule="evenodd" class="a" d="m0.4 0c18.4 0 36.1 0.1 54.5 0.1 4.6 0 9.2 0.1 13.7 0.1 1.4 0 2.9-0.1 4.4 0.1 0.2 12.8 0 25.3 0 38 0 1 0.2 2.2 0 3-0.1 0.2-0.2 0.3-0.2 0.4 0 0.3 0.2 0.5 0.2 1 0.1 1.5 0 3.1 0 4.7 0 8 0 15.8 0 23.7 0 1.5 0.2 3-0.1 4.5-12 0.2-24.2 0-36.4 0-12.2 0-24.2-0.2-36.3-0.2-0.3-1.5-0.2-3-0.2-4.7 0-7.8 0.1-15.5 0.1-23.5 0-14.9 0.1-29.8 0.1-44.8 0-0.8-0.1-1.9 0.1-2.3q0-0.1 0.1-0.1zm61.7 7.9c-3.6 0-7.3 0-11 0-14.7-0.1-29.4-0.2-44.4-0.1-0.3 0.5-0.2 1.1-0.2 1.7 0 19.4-0.2 38.7 0 58.1 4.8 0.2 9.8 0.2 14.7 0.2 5 0 10 0.1 15 0.1 9.3 0 19.9 0.1 29.4 0 0.2-5 0.1-10 0.1-15.1 0-9.7 0.1-19.7 0.1-30 0-5.1 0.1-9.9-0.1-14.7-1.2-0.3-2.4-0.2-3.6-0.2z"/><path fill-rule="evenodd" class="a" d="m25.8 14c0.2 3.2 0.2 7.5 0 10.8-0.7-0.3-1.2-0.8-1.8-1.3-3.3-2.6-6.6-5.4-9.9-8.1-0.2-0.2-0.5-0.4-0.8-0.7-0.2-0.2-0.6-0.4-0.6-0.8 4.4-0.1 9.1-0.2 13.1 0.1z"/><path fill-rule="evenodd" class="a" d="m32.6 13.9c3.4 0.1 7.2-0.1 10.5 0.1 0.1 5.4 0.1 10.9 0 16.2-0.6-0.3-0.9-0.9-1.2-1.4-2.3-3.5-4.7-7.1-7-10.7-0.5-0.6-0.8-1.4-1.3-2-0.4-0.7-1-1.3-1.2-2.1q0.1-0.1 0.2-0.1z"/><path fill-rule="evenodd" class="a" d="m59.7 14.1c-0.2 0.7-0.7 1.4-1.1 2.1-2.1 3.3-4.2 6.8-6.3 10.2-0.6 1-1.4 2-2 3-0.1 0.3-0.2 0.8-0.6 0.8-0.2-4.6-0.1-9.8-0.1-14.6 0-0.5-0.1-1.2 0.2-1.6 1.4-0.1 3.4-0.1 5.1 0 1.7 0 3.4-0.2 4.8 0.1z"/><path fill-rule="evenodd" class="a" d="m12.2 21.1c0.9 0.2 1.2 1 1.9 1.5 1.3 1.2 2.8 2.2 4.3 3.5 0.2 0.2 1.3 0.9 1.3 1.3 0 0.3-0.6 0.6-0.9 0.9-1.6 1.3-3.1 2.7-4.7 4.1-0.6 0.5-1.2 1.1-1.9 1.5-0.3-0.9-0.2-2-0.2-3.1 0-2.1 0-4.2 0-6.4 0-1.1 0-2.3 0.1-3.2 0 0 0-0.1 0.1-0.1z"/><path fill-rule="evenodd" class="a" d="m32.1 51c-0.3-7.8-0.1-16.2-0.1-24.7 0-0.6 0-1.2 0-1.6q0-0.1 0.1-0.1h0.1c0.8 1 1.5 2.1 2.2 3.1q1 1.5 2.1 3.2c0.9 1.5 2 3.1 3.1 4.7 0.3 0.5 0.9 1.3 0.9 1.7 0.1 0.5-0.6 1.3-0.9 1.8-1.8 2.8-3.5 5.7-5.3 8.6q-0.5 0.9-1 1.7c-0.4 0.5-0.6 1.2-1.2 1.6z"/><path fill-rule="evenodd" class="a" d="m59.8 50.6c-0.6-0.3-0.8-1-1.1-1.5-1-1.6-1.9-3.3-2.9-5-0.9-1.7-1.9-3.3-2.8-5-0.3-0.5-0.9-1.3-0.9-1.7 0-0.5 0.6-1.1 0.9-1.6 2.1-3.6 4.5-7.2 6.6-10.7q0-0.1 0.2-0.2c0 0.1 0 0.1 0.1 0.1 0.1 8.2 0.1 17.2-0.1 25.6z"/><path fill-rule="evenodd" class="a" d="m25.7 29.9q0 0 0 0.1c0.3 0.1 0.2 0.6 0.2 0.8 0 3.9 0 8.9-0.1 13.1-0.5-0.1-0.8-0.5-1.1-0.8-1.1-0.8-2.2-1.6-3.2-2.5-1.1-0.7-2-1.6-3.2-2.5-0.3-0.3-0.9-0.6-0.9-1 0-0.4 0.6-0.7 0.9-1q2.6-2.3 5.2-4.4c0.7-0.6 1.5-1.2 2.2-1.8z"/><path fill-rule="evenodd" class="a" d="m12.1 53.9c-0.2-4.4-0.2-9.2 0-13.7q0-0.1 0.1-0.1c0.6 0.3 1.3 1.1 1.9 1.6 0.7 0.5 1.4 1 2 1.6 1 0.7 1.9 1.6 2.9 2.4 0.3 0.2 0.8 0.4 0.9 0.8-0.1 0.5-0.6 0.8-0.9 1.1-1.6 1.5-3.3 3-4.9 4.5-0.7 0.6-1.2 1.4-2 1.8z"/><path fill-rule="evenodd" class="a" d="m42.9 44.4c0.3 0.2 0.2 0.6 0.2 0.9 0 4 0 8.4 0 12.3 0 1.5 0.1 3-0.1 4.4-3.5 0.2-7.4 0.2-10.8 0 0.2-0.9 0.8-1.6 1.3-2.3 3.2-4.9 6-10.2 9.2-15.2q0.1-0.1 0.2-0.1 0 0 0 0z"/><path fill-rule="evenodd" class="a" d="m59.8 62.1c-0.4 0.2-0.8 0.1-1.3 0.1-2.8 0-6.1 0-8.9-0.2-0.2-5.6 0-11.3 0-17.2q0-0.1 0.1-0.1h0.1q1.3 2.1 2.5 4.3c1.7 2.9 3.4 5.7 5 8.7 0.8 1.4 1.7 2.9 2.5 4.4z"/><path fill-rule="evenodd" class="a" d="m25.6 49.2c0.4 0.1 0.3 0.6 0.3 0.9 0 2.7-0.1 5.6-0.1 8.3 0 1.2 0.3 2.5-0.1 3.6-4.5 0.1-9 0-13.4-0.1-0.1-0.4 0.5-0.5 0.6-0.9 0.3-0.2 0.5-0.6 0.8-0.8 3.9-3.7 7.8-7.4 11.7-11q0.1 0 0.2 0z"/></svg>